<svg xmlns="http://www.w3.org/2000/svg" viewBox="0 0 512 512"><!--! Font Awesome Pro 6.5.1 by @fontawesome - https://fontawesome.com License - https://fontawesome.com/license (Commercial License) Copyright 2023 Fonticons, Inc. --><path d="M418 187.1C391.2 124.1 328.7 80 256 80c-39.7 0-77.8 15.8-105.9 43.9L97.9 176H152c13.3 0 24 10.7 24 24s-10.7 24-24 24H40c-13.3 0-24-10.7-24-24V88c0-13.3 10.7-24 24-24s24 10.7 24 24v54.1l52.1-52.1C153.2 52.8 203.5 32 256 32c92.6 0 172.1 56.2 206.2 136.3c5.2 12.2-.5 26.3-12.7 31.5s-26.3-.5-31.5-12.7zM50 344.1c-5.2-12.2 .4-26.3 12.6-31.5s26.3 .4 31.5 12.6C121 388.1 183.4 432 256 432c39.7 0 77.8-15.8 105.9-43.9L414.1 336H360c-13.3 0-24-10.7-24-24s10.7-24 24-24H472c13.3 0 24 10.7 24 24V424c0 13.3-10.7 24-24 24s-24-10.7-24-24V369.9l-52.1 52.1C358.8 459.2 308.5 480 256 480c-92.5 0-171.8-56-206-135.9z"/></svg>