<svg xmlns="http://www.w3.org/2000/svg" viewBox="0 0 512 512"><!--! Font Awesome Pro 6.5.1 by @fontawesome - https://fontawesome.com License - https://fontawesome.com/license (Commercial License) Copyright 2023 Fonticons, Inc. --><path d="M48 256C48 141.1 141.1 48 256 48c13.3 0 24-10.7 24-24s-10.7-24-24-24C114.6 0 0 114.6 0 256S114.6 512 256 512c13.3 0 24-10.7 24-24s-10.7-24-24-24C141.1 464 48 370.9 48 256zM279.7 134.4l-112 104c-4.9 4.5-7.7 10.9-7.7 17.6s2.8 13 7.7 17.6l112 104c9.7 9 24.9 8.5 33.9-1.3s8.5-24.9-1.3-33.9L245.1 280H488c13.3 0 24-10.7 24-24s-10.7-24-24-24H245.1l67.2-62.4c9.7-9 10.3-24.2 1.3-33.9s-24.2-10.3-33.9-1.3z"/></svg>