<svg xmlns="http://www.w3.org/2000/svg" viewBox="0 0 448 512"><!--! Font Awesome Pro 6.5.1 by @fontawesome - https://fontawesome.com License - https://fontawesome.com/license (Commercial License) Copyright 2023 Fonticons, Inc. --><path d="M224 48c35.3 0 64 28.7 64 64v48H160V112c0-35.3 28.7-64 64-64zM112 112v48H48c-26.5 0-48 21.5-48 48V416c0 53 43 96 96 96H352c53 0 96-43 96-96V208c0-26.5-21.5-48-48-48H336V112C336 50.1 285.9 0 224 0S112 50.1 112 112zM48 208H400V416c0 26.5-21.5 48-48 48H96c-26.5 0-48-21.5-48-48V208zm96 104c-13.3 0-24 10.7-24 24s10.7 24 24 24H304c13.3 0 24-10.7 24-24s-10.7-24-24-24H144z"/></svg>