<svg xmlns="http://www.w3.org/2000/svg" viewBox="0 0 576 512"><!--! Font Awesome Pro 6.5.1 by @fontawesome - https://fontawesome.com License - https://fontawesome.com/license (Commercial License) Copyright 2023 Fonticons, Inc. --><path d="M253.3 35.1c6.1-11.8 1.5-26.3-10.2-32.4s-26.3-1.5-32.4 10.2L117.6 192H81.5 32 24c-13.3 0-24 10.7-24 24s10.7 24 24 24H44L99.9 463.5C107 492 132.6 512 162 512H414c29.4 0 55-20 62.1-48.5L532 240h20c13.3 0 24-10.7 24-24s-10.7-24-24-24h-8H494.5 458.4L365.3 12.9C359.2 1.2 344.7-3.4 332.9 2.7s-16.3 20.6-10.2 32.4L404.3 192H171.7L253.3 35.1zM93.5 240h389l-53 211.9C427.8 459 421.4 464 414 464H162c-7.3 0-13.7-5-15.5-12.1L93.5 240zM224 328c-13.3 0-24 10.7-24 24s10.7 24 24 24H352c13.3 0 24-10.7 24-24s-10.7-24-24-24H224z"/></svg>