<svg xmlns="http://www.w3.org/2000/svg" viewBox="0 0 640 512"><!--! Font Awesome Pro 6.5.1 by @fontawesome - https://fontawesome.com License - https://fontawesome.com/license (Commercial License) Copyright 2023 Fonticons, Inc. --><path d="M48 112c0-35.3 28.7-64 64-64H336c35.3 0 64 28.7 64 64v39.4c4.1-3.9 8.2-7.7 12.5-11.5c10-8.9 23-12.8 35.5-11.7V112C448 50.1 397.9 0 336 0H112C50.1 0 0 50.1 0 112V336c0 61.9 50.1 112 112 112H314.4c-8.7-14.9-15.4-31-19.9-48H112c-35.3 0-64-28.7-64-64s28.7-64 64-64H309c4.9-10 10.3-19.8 16.2-29.3c3.8-6.2 7.9-12.5 12.3-18.7H112c-23.8 0-45.9 7.4-64 20.1V112zM288 350.1c0-12.4 2-25.2 5.6-38.1H120c-13.3 0-24 10.7-24 24s10.7 24 24 24H288.3c-.2-3.3-.3-6.6-.3-9.9zM480 512c88.4 0 160-71.6 160-160c0-31.8-15.5-84-74.4-142.4c-11.8-11.7-30.6-10.7-42.3 1L512 221.9l-46-46c-6.1-6.1-14.1-9.3-22-9.2c-5.9 .1-11.8 1.9-16.8 5.8C382.5 207.3 320 275.3 320 352c0 88.4 71.6 160 160 160zm64-111.8c0 35.3-28.7 64-64 64s-64-28.7-64-64c0-36.5 37-73 54.8-88.4c5.4-4.7 13.1-4.7 18.5 0C507 327.1 544 363.6 544 400.2z"/></svg>