<svg xmlns="http://www.w3.org/2000/svg" viewBox="0 0 640 512"><!--! Font Awesome Pro 6.5.1 by @fontawesome - https://fontawesome.com License - https://fontawesome.com/license (Commercial License) Copyright 2023 Fonticons, Inc. --><path d="M176 80v48h32 48 80V80H176zm-48 48V80H96c-8.8 0-16 7.2-16 16v32h48zM80 176v56H208V176H80zm0 160h48V280H80v56zm0 48v32c0 8.8 7.2 16 16 16H208V384H176 128 80zm96-48H288.8c-.5 4.7-.8 9.4-.8 14.1c0 11.5 1 22.9 3 33.9H256v48h50.1c8.1 17.5 18.8 33.7 31.5 48H96c-35.3 0-64-28.7-64-64V96c0-35.3 28.7-64 64-64H416c35.3 0 64 28.7 64 64v48.6c-1.7-1.5-3.3-3.1-5-4.6c-17.7-16-44.7-16-62.5-.1c-12.9 11.5-25.1 23.7-36.5 36.1H256v56h76c-2.4 3.6-4.7 7.2-6.9 10.7c-7.4 12-14.2 24.5-19.9 37.3H176v56zM432 128V96c0-8.8-7.2-16-16-16H384v48h48zm48 384c-88.4 0-160-71.6-160-160c0-76.7 62.5-144.7 107.2-179.4c5-3.9 10.9-5.8 16.8-5.8c7.9-.1 16 3.1 22 9.2l46 46 11.3-11.3c11.7-11.7 30.6-12.7 42.3-1C624.5 268 640 320.2 640 352c0 88.4-71.6 160-160 160zm64-111.8c0-36.5-37-73-54.8-88.4c-5.4-4.7-13.1-4.7-18.5 0C453 327.1 416 363.6 416 400.2c0 35.3 28.7 64 64 64s64-28.7 64-64z"/></svg>