<svg xmlns="http://www.w3.org/2000/svg" viewBox="0 0 512 512"><!--! Font Awesome Pro 6.5.1 by @fontawesome - https://fontawesome.com License - https://fontawesome.com/license (Commercial License) Copyright 2023 Fonticons, Inc. --><path d="M56 48c-4.4 0-8 3.6-8 8V488c0 13.3-10.7 24-24 24s-24-10.7-24-24V56C0 25.1 25.1 0 56 0h88V48H56zM416 0h40c30.9 0 56 25.1 56 56V96 392v96c0 13.3-10.7 24-24 24s-24-10.7-24-24V459.9c-7.5 2.7-15.6 4.1-24 4.1c-18.4 0-35.3-6.9-48-18.3c-12.7 11.4-29.6 18.3-48 18.3s-35.3-6.9-48-18.3c-12.7 11.4-29.6 18.3-48 18.3c-39.8 0-72-32.2-72-72V32c0-17.7 14.3-32 32-32h64 48 48 7.8H416zM368 48H320V392c0 13.3 10.7 24 24 24s24-10.7 24-24V48zm96 344V96 56c0-4.4-3.6-8-8-8H416V96 392c0 13.3 10.7 24 24 24s24-10.7 24-24zm-240 0c0 13.3 10.7 24 24 24s24-10.7 24-24V48H224V392z"/></svg>