<svg xmlns="http://www.w3.org/2000/svg" viewBox="0 0 640 512"><!--! Font Awesome Pro 6.5.1 by @fontawesome - https://fontawesome.com License - https://fontawesome.com/license (Commercial License) Copyright 2023 Fonticons, Inc. --><path d="M64 48H320c8.8 0 16 7.2 16 16v9.6c12-6.1 25.6-9.6 40-9.6h8c0-35.3-28.7-64-64-64H64C28.7 0 0 28.7 0 64V448c0 35.3 28.7 64 64 64H308.1c-11-13.3-18.1-29.8-19.8-48H240V400c0-26.5-21.5-48-48-48s-48 21.5-48 48v64H64c-8.8 0-16-7.2-16-16V64c0-8.8 7.2-16 16-16zm232 56c0-8.8-7.2-16-16-16H232c-8.8 0-16 7.2-16 16v48c0 8.8 7.2 16 16 16h48c2.9 0 5.6-.8 8-2.1V152c0-13.1 2.9-25.5 8-36.7V104zM280 216H232c-8.8 0-16 7.2-16 16v48c0 8.8 7.2 16 16 16h48c2.9 0 5.6-.8 8-2.1V218.1c-2.4-1.4-5.1-2.1-8-2.1zM88 104v48c0 8.8 7.2 16 16 16h48c8.8 0 16-7.2 16-16V104c0-8.8-7.2-16-16-16H104c-8.8 0-16 7.2-16 16zm0 128v48c0 8.8 7.2 16 16 16h48c8.8 0 16-7.2 16-16V232c0-8.8-7.2-16-16-16H104c-8.8 0-16 7.2-16 16zM384 96c-35.3 0-64 28.7-64 64V448c0 35.3 28.7 64 64 64H576c35.3 0 64-28.7 64-64V160c0-35.3-28.7-64-64-64H384zm16 88a24 24 0 1 1 0 48 24 24 0 1 1 0-48zM376 304a24 24 0 1 1 48 0 24 24 0 1 1 -48 0zm24 72a24 24 0 1 1 0 48 24 24 0 1 1 0-48zm64-168c0-8.8 7.2-16 16-16h96c8.8 0 16 7.2 16 16s-7.2 16-16 16H480c-8.8 0-16-7.2-16-16zm16 80h96c8.8 0 16 7.2 16 16s-7.2 16-16 16H480c-8.8 0-16-7.2-16-16s7.2-16 16-16zM464 400c0-8.8 7.2-16 16-16h96c8.8 0 16 7.2 16 16s-7.2 16-16 16H480c-8.8 0-16-7.2-16-16z"/></svg>