<svg xmlns="http://www.w3.org/2000/svg" viewBox="0 0 603 512"><!--! Font Awesome Pro 6.5.1 by @fontawesome - https://fontawesome.com License - https://fontawesome.com/license (Commercial License) Copyright 2023 Fonticons, Inc. --><path d="M60.6 45.2H301.5c8.3 0 15.1 6.7 15.1 15.1V193.6c13-12.7 28.3-23.1 45.2-30.5V60.2C361.7 27 334.8 0 301.5 0H60.6C27.3 0 .3 27 .3 60.2V421.6c0 33.3 27 60.2 60.2 60.2H301.5c27.5 0 50.7-18.5 57.9-43.7c-16-7.3-30.5-17.3-42.9-29.5v12.9c0 8.3-6.7 15.1-15.1 15.1H226.2V376.5c0-24.9-20.2-45.2-45.2-45.2s-45.2 20.2-45.2 45.2v60.2H60.6c-8.3 0-15.1-6.7-15.1-15.1V60.2c0-8.3 6.7-15.1 15.1-15.1zM278.9 218.4c0-8.3-6.7-15.1-15.1-15.1H218.7c-8.3 0-15.1 6.7-15.1 15.1v45.2c0 8.3 6.7 15.1 15.1 15.1h45.2c3.7 0 7.2-1.4 9.8-3.6c1.3-7.2 3-14.2 5.3-20.9V218.4zM83.1 97.9v45.2c0 8.3 6.7 15.1 15.1 15.1h45.2c8.3 0 15.1-6.7 15.1-15.1V97.9c0-8.3-6.7-15.1-15.1-15.1H98.2c-8.3 0-15.1 6.7-15.1 15.1zM218.7 82.8c-8.3 0-15.1 6.7-15.1 15.1v45.2c0 8.3 6.7 15.1 15.1 15.1h45.2c8.3 0 15.1-6.7 15.1-15.1V97.9c0-8.3-6.7-15.1-15.1-15.1H218.7zM83.1 218.4v45.2c0 8.3 6.7 15.1 15.1 15.1h45.2c8.3 0 15.1-6.7 15.1-15.1V218.4c0-8.3-6.7-15.1-15.1-15.1H98.2c-8.3 0-15.1 6.7-15.1 15.1zM422 226a75.3 75.3 0 1 1 0 150.6A75.3 75.3 0 1 1 422 226zm0 195.8c25.1 0 48.4-7.7 67.7-20.8l74.4 74.4c8.8 8.8 23.1 8.8 31.9 0s8.8-23.1 0-31.9L521.6 369c13.1-19.3 20.8-42.6 20.8-67.7c0-66.5-53.9-120.5-120.5-120.5s-120.5 53.9-120.5 120.5s53.9 120.5 120.5 120.5z"/></svg>