<svg xmlns="http://www.w3.org/2000/svg" viewBox="0 0 640 512"><!--! Font Awesome Pro 6.5.1 by @fontawesome - https://fontawesome.com License - https://fontawesome.com/license (Commercial License) Copyright 2023 Fonticons, Inc. --><path d="M80 88v88H221.9l-43-91.4c-1.3-2.8-4.1-4.6-7.2-4.6H88c-4.4 0-8 3.6-8 8zM32 176V88c0-30.9 25.1-56 56-56h83.7c21.7 0 41.4 12.5 50.7 32.2L275 176h53V120c0-13.3 10.7-24 24-24s24 10.7 24 24v56c39.8 0 72 32.2 72 72v48h64V264.7c0-21.9 8.2-43 22.9-59.2l63.4-69.7c8.9-9.8 24.1-10.5 33.9-1.6s10.5 24.1 1.6 33.9l-63.4 69.7c-6.7 7.4-10.4 17-10.4 26.9V375.3c0 9.9 3.7 19.5 10.4 26.9l63.4 69.7c8.9 9.8 8.2 25-1.6 33.9s-25 8.2-33.9-1.6l-63.4-69.7c-14.7-16.2-22.9-37.3-22.9-59.2V344H465c9.5 16.5 15 35.6 15 56c0 61.9-50.1 112-112 112H112C50.1 512 0 461.9 0 400c0-30.5 12.2-58.2 32-78.4V224 200 176zM80 292.6c10.1-3 20.9-4.6 32-4.6H368c11.1 0 21.9 1.6 32 4.6V248c0-13.3-10.7-24-24-24H80v68.6zM112 336c-35.3 0-64 28.7-64 64s28.7 64 64 64H368c35.3 0 64-28.7 64-64s-28.7-64-64-64H112zM96 400a24 24 0 1 1 48 0 24 24 0 1 1 -48 0zm264-24a24 24 0 1 1 0 48 24 24 0 1 1 0-48zM256 400a24 24 0 1 1 48 0 24 24 0 1 1 -48 0zm-56-24a24 24 0 1 1 0 48 24 24 0 1 1 0-48z"/></svg>