<svg xmlns="http://www.w3.org/2000/svg" viewBox="0 0 512 512"><!--! Font Awesome Pro 6.5.1 by @fontawesome - https://fontawesome.com License - https://fontawesome.com/license (Commercial License) Copyright 2023 Fonticons, Inc. --><path d="M257.5 320c80.3 0 145.5-65.1 145.5-145.5c0-29-14.1-76.4-67.6-129.5c-10.7-10.6-27.8-9.7-38.5 .9L286.5 56.3 244.7 14.5c-5.5-5.5-12.8-8.4-20-8.4c-5.4 .1-10.7 1.8-15.2 5.3C168.8 43 112 104.9 112 174.5C112 254.9 177.1 320 257.5 320zm58.2-101.7c0 32.1-26 58.2-58.2 58.2s-58.2-26-58.2-58.2c0-33.2 33.7-66.4 49.8-80.4c4.9-4.2 11.9-4.2 16.8 0c16.1 14 49.8 47.2 49.8 80.4zM32.5 289.6c-12.4-4.7-26.3 1.5-31 13.9s1.5 26.3 13.9 31L188.3 400 15.5 465.6c-12.4 4.7-18.6 18.6-13.9 31s18.6 18.6 31 13.9L256 425.7l223.5 84.8c12.4 4.7 26.3-1.5 31-13.9s-1.5-26.2-13.9-31L323.7 400l172.8-65.6c12.4-4.7 18.6-18.6 13.9-31s-18.6-18.6-31-13.9L256 374.3 32.5 289.6z"/></svg>