<svg xmlns="http://www.w3.org/2000/svg" viewBox="0 0 640 512"><!--! Font Awesome Pro 6.5.1 by @fontawesome - https://fontawesome.com License - https://fontawesome.com/license (Commercial License) Copyright 2023 Fonticons, Inc. --><path d="M24 0C10.7 0 0 10.7 0 24S10.7 48 24 48H69.5c3.8 0 7.1 2.7 7.9 6.5l51.6 271c6.5 34 36.2 58.5 70.7 58.5h121c-.5-5.3-.7-10.6-.7-16c0-10.9 1-21.6 2.9-32H199.7c-11.5 0-21.4-8.2-23.6-19.5L170.7 288H339.2c9.2-18 21.4-34.2 36-48H161.6L131.1 80H520.7L490.5 192.1c1.8-.1 3.7-.1 5.5-.1c14.8 0 29.1 1.8 42.8 5.2L569.7 82.4C576.6 57 557.4 32 531.1 32h-411C111 12.8 91.6 0 69.5 0H24zM176 512a48 48 0 1 0 0-96 48 48 0 1 0 0 96zM352 368a144 144 0 1 0 288 0 144 144 0 1 0 -288 0zm208 16H512v48c0 8.8-7.2 16-16 16s-16-7.2-16-16V384H432c-8.8 0-16-7.2-16-16s7.2-16 16-16h48V304c0-8.8 7.2-16 16-16s16 7.2 16 16v48h48c8.8 0 16 7.2 16 16s-7.2 16-16 16z"/></svg>