<svg xmlns="http://www.w3.org/2000/svg" viewBox="0 0 448 512"><!--! Font Awesome Pro 6.5.1 by @fontawesome - https://fontawesome.com License - https://fontawesome.com/license (Commercial License) Copyright 2023 Fonticons, Inc. --><path d="M368 432l0-352 32 0 0 352H368zm-48 0c0 26.5 21.5 48 48 48h32c26.5 0 48-21.5 48-48l0-352c0-26.5-21.5-48-48-48H368c-26.5 0-48 21.5-48 48l0 352zM80 368H48L48 80H80l0 288zM48 416H80c26.5 0 48-21.5 48-48l0-288c0-26.5-21.5-48-48-48H48C21.5 32 0 53.5 0 80L0 368c0 26.5 21.5 48 48 48zM240 240H208l0-160h32l0 160zm-32 48h32c26.5 0 48-21.5 48-48V80c0-26.5-21.5-48-48-48H208c-26.5 0-48 21.5-48 48l0 160c0 26.5 21.5 48 48 48z"/></svg>