<svg xmlns="http://www.w3.org/2000/svg" viewBox="0 0 512 512"><!--! Font Awesome Pro 6.5.1 by @fontawesome - https://fontawesome.com License - https://fontawesome.com/license (Commercial License) Copyright 2023 Fonticons, Inc. --><path d="M144 16c0-8.8-7.2-16-16-16s-16 7.2-16 16V32H96c-8.8 0-16 7.2-16 16s7.2 16 16 16h16V96H66.9C43.2 96 24 115.2 24 138.9c0 4.7 .8 9.4 2.3 13.8l19.6 57.5C37.7 214.1 32 222.4 32 232c0 11.6 8.2 21.3 19.2 23.5L49.1 352h48l2.1-96h57.6l2.1 96h48l-2.1-96.5c10.9-2.2 19.2-11.9 19.2-23.5c0-9.6-5.7-17.9-13.9-21.8l19.6-57.5c1.5-4.5 2.3-9.1 2.3-13.8c0-23.7-19.2-42.9-42.9-42.9H144V64h16c8.8 0 16-7.2 16-16s-7.2-16-16-16H144V16zm16.2 192H95.8L74 144H182l-21.8 64zm-91 224H186.8l16.6 32H52.7l16.6-32zm-9.7-48c-12 0-22.9 6.7-28.4 17.3L4.6 452.5c-3 5.8-4.6 12.2-4.6 18.7C0 493.8 18.2 512 40.8 512H192h23.2 80.5H320 472.2c22 0 39.8-17.8 39.8-39.8c0-6.8-1.7-13.4-5-19.3l-31.4-56.6c-4.2-7.6-12.3-12.3-21-12.3H313.4c-8.7 0-16.7 4.7-21 12.3L261 452.9c-3.2 5.8-5 12.4-5 19.1h0c0-.2 0-.5 0-.8c0-6.5-1.6-12.9-4.6-18.7l-26.5-51.2c-5.5-10.6-16.5-17.3-28.4-17.3H59.5zM256 184v72c0 5 1.6 9.9 4.5 13.9L296 319.7V352h48V312c0-5-1.6-9.9-4.5-13.9L304 248.3V208h32v16c0 8.8 7.2 16 16 16s16-7.2 16-16V208h32v16c0 8.8 7.2 16 16 16s16-7.2 16-16V208h32v40.3l-35.5 49.7c-2.9 4.1-4.5 8.9-4.5 13.9v40h48V319.7l35.5-49.7c2.9-4.1 4.5-8.9 4.5-13.9V184c0-13.3-10.7-24-24-24H280c-13.3 0-24 10.7-24 24zm53.8 280l17.8-32H440.5l17.8 32H309.8z"/></svg>