<svg xmlns="http://www.w3.org/2000/svg" viewBox="0 0 640 512"><!--! Font Awesome Pro 6.5.1 by @fontawesome - https://fontawesome.com License - https://fontawesome.com/license (Commercial License) Copyright 2023 Fonticons, Inc. --><path d="M64 80c-8.8 0-16 7.2-16 16v32H64c35.3 0 64 28.7 64 64V320c0 35.3-28.7 64-64 64H48v32c0 8.8 7.2 16 16 16H296V365.4c-50.3-11-88-55.8-88-109.4s37.7-98.4 88-109.4V80H64zM344 365.4V432H576c8.8 0 16-7.2 16-16V384H576c-35.3 0-64-28.7-64-64V192c0-35.3 28.7-64 64-64h16V96c0-8.8-7.2-16-16-16H344v66.6c50.3 11 88 55.8 88 109.4s-37.7 98.4-88 109.4zm0-168.8V315.3c23.5-9.5 40-32.5 40-59.3s-16.5-49.9-40-59.3zm-48 0c-23.5 9.5-40 32.5-40 59.3s16.5 49.9 40 59.3V196.7zM48 176V336H64c8.8 0 16-7.2 16-16V192c0-8.8-7.2-16-16-16H48zM576 336h16V176H576c-8.8 0-16 7.2-16 16V320c0 8.8 7.2 16 16 16zM0 96C0 60.7 28.7 32 64 32H576c35.3 0 64 28.7 64 64V416c0 35.3-28.7 64-64 64H64c-35.3 0-64-28.7-64-64V96z"/></svg>