<svg xmlns="http://www.w3.org/2000/svg" viewBox="0 0 640 512"><!--! Font Awesome Pro 6.5.1 by @fontawesome - https://fontawesome.com License - https://fontawesome.com/license (Commercial License) Copyright 2023 Fonticons, Inc. --><path d="M144 48H246.9c2.7 0 5.2 1.3 6.7 3.6L325.8 160H144V48zM384 224V208 182.5c0-14.2-4.2-28.1-12.1-39.9L293.5 24.9C283.1 9.4 265.6 0 246.9 0H136C113.9 0 96 17.9 96 40V160H48c-26.5 0-48 21.5-48 48v64c0 26.5 21.5 48 48 48H336c26.5 0 48-21.5 48-48V224zm-48-16v16 48H48V208H336zM80 400H336c17.7 0 32 14.3 32 32s-14.3 32-32 32H80c-17.7 0-32-14.3-32-32s14.3-32 32-32zM0 432c0 44.2 35.8 80 80 80H336c44.2 0 80-35.8 80-80s-35.8-80-80-80H80c-44.2 0-80 35.8-80 80zm457.9 22.1c-6.4 6.4-9.9 15-9.9 24c0 18.7 15.2 33.9 33.9 33.9H560c44.2 0 80-35.8 80-80V384 336 320 144 46.6c0-2.7-.2-5.3-.7-7.8c-3.7-22-22.9-38.8-46-38.8c-11.2 0-22.1 4-30.5 11.4L416 138.7v63.5L592 49.7V80.2l-31.6 27.7L416 234.2V298L544 186l48-42v63.8V320L457.9 454.1z"/></svg>