<svg xmlns="http://www.w3.org/2000/svg" viewBox="0 0 512 512"><!--! Font Awesome Pro 6.5.1 by @fontawesome - https://fontawesome.com License - https://fontawesome.com/license (Commercial License) Copyright 2023 Fonticons, Inc. --><path d="M128 464H64c-8.8 0-16-7.2-16-16V64c0-8.8 7.2-16 16-16H224v80c0 17.7 14.3 32 32 32h80V288h48V154.5c0-17-6.7-33.3-18.7-45.3L274.7 18.7C262.7 6.7 246.5 0 229.5 0H64C28.7 0 0 28.7 0 64V448c0 35.3 28.7 64 64 64h64V464zm96-96c0-8.8-7.2-16-16-16s-16 7.2-16 16c0 13.6 4 26.9 11.6 38.2L220.8 432l-17.2 25.8C196 469.1 192 482.4 192 496c0 8.8 7.2 16 16 16s16-7.2 16-16c0-7.3 2.2-14.4 6.2-20.4l9.8-14.7 9.8 14.7c4 6.1 6.2 13.2 6.2 20.4c0 8.8 7.2 16 16 16s16-7.2 16-16c0-13.6-4-26.9-11.6-38.2L259.2 432l17.2-25.8C284 394.9 288 381.6 288 368c0-8.8-7.2-16-16-16s-16 7.2-16 16c0 7.3-2.2 14.4-6.2 20.4L240 403.2l-9.8-14.7c-4-6.1-6.2-13.2-6.2-20.4zm96 128c0 8.8 7.2 16 16 16h48c8.8 0 16-7.2 16-16s-7.2-16-16-16H352V368c0-8.8-7.2-16-16-16s-16 7.2-16 16V496zm88-98.3c0 17.3 9.8 33.1 25.2 40.8l31.2 15.6c4.6 2.3 7.6 7 7.6 12.2c0 7.5-6.1 13.7-13.7 13.7H432c-8.8 0-16 7.2-16 16s7.2 16 16 16h26.3c25.2 0 45.7-20.4 45.7-45.7c0-17.3-9.8-33.1-25.2-40.8l-31.2-15.6c-4.6-2.3-7.6-7-7.6-12.2c0-7.5 6.1-13.7 13.7-13.7H480c8.8 0 16-7.2 16-16s-7.2-16-16-16H453.7c-25.2 0-45.7 20.4-45.7 45.7z"/></svg>