<svg xmlns="http://www.w3.org/2000/svg" viewBox="0 0 512 512"><!--! Font Awesome Pro 6.5.1 by @fontawesome - https://fontawesome.com License - https://fontawesome.com/license (Commercial License) Copyright 2023 Fonticons, Inc. --><path d="M64 464H96v48H64c-35.3 0-64-28.7-64-64V64C0 28.7 28.7 0 64 0H229.5c17 0 33.3 6.7 45.3 18.7l90.5 90.5c12 12 18.7 28.3 18.7 45.3V288H336V160H256c-17.7 0-32-14.3-32-32V48H64c-8.8 0-16 7.2-16 16V448c0 8.8 7.2 16 16 16zm96-96c0-8.8 7.2-16 16-16h64c8.8 0 16 7.2 16 16s-7.2 16-16 16H192v32h32c8.8 0 16 7.2 16 16s-7.2 16-16 16H192v32h48c8.8 0 16 7.2 16 16s-7.2 16-16 16H176c-8.8 0-16-7.2-16-16V432 368zm144-16h32c30.9 0 56 25.1 56 56s-25.1 56-56 56H320v32c0 8.8-7.2 16-16 16s-16-7.2-16-16V448 368c0-8.8 7.2-16 16-16zm32 80c13.3 0 24-10.7 24-24s-10.7-24-24-24H320v48h16zm117.7-80H480c8.8 0 16 7.2 16 16s-7.2 16-16 16H453.7c-7.5 0-13.7 6.1-13.7 13.7c0 5.2 2.9 9.9 7.6 12.2l31.2 15.6c15.5 7.7 25.2 23.5 25.2 40.8c0 25.2-20.4 45.7-45.7 45.7H424c-8.8 0-16-7.2-16-16s7.2-16 16-16h34.3c7.5 0 13.7-6.1 13.7-13.7c0-5.2-2.9-9.9-7.6-12.2l-31.2-15.6C417.8 430.8 408 415 408 397.7c0-25.2 20.4-45.7 45.7-45.7z"/></svg>