<svg xmlns="http://www.w3.org/2000/svg" viewBox="0 0 512 512"><!--! Font Awesome Pro 6.5.1 by @fontawesome - https://fontawesome.com License - https://fontawesome.com/license (Commercial License) Copyright 2023 Fonticons, Inc. --><path d="M48 448c0 8.8 7.2 16 16 16v48c-35.3 0-64-28.7-64-64V64C0 28.7 28.7 0 64 0H229.5c17 0 33.3 6.7 45.3 18.7l90.5 90.5c12 12 18.7 28.3 18.7 45.3V288H336V160H256c-17.7 0-32-14.3-32-32V48H64c-8.8 0-16 7.2-16 16V448zm91.7-95.4c6.9-1.9 14.3 1 18 7.2L192 416.9l34.3-57.1c3.7-6.2 11.1-9.1 18-7.2s11.7 8.2 11.7 15.4V496c0 8.8-7.2 16-16 16s-16-7.2-16-16V425.8l-18.3 30.5c-2.9 4.8-8.1 7.8-13.7 7.8s-10.8-3-13.7-7.8L160 425.8V496c0 8.8-7.2 16-16 16s-16-7.2-16-16V368c0-7.2 4.8-13.5 11.7-15.4zM288 368c0-8.8 7.2-16 16-16h32c30.9 0 56 25.1 56 56s-25.1 56-56 56H320v32c0 8.8-7.2 16-16 16s-16-7.2-16-16V448 368zm32 64h16c13.3 0 24-10.7 24-24s-10.7-24-24-24H320v48zm144 80H432c-8.8 0-16-7.2-16-16s7.2-16 16-16h32c8.8 0 16-7.2 16-16s-7.2-16-16-16H440c-8.8 0-16-7.2-16-16c0-.6 0-1.1 .1-1.6c.8-8.1 7.6-14.4 15.9-14.4h24c8.8 0 16-7.2 16-16s-7.2-16-16-16H432c-8.8 0-16-7.2-16-16s7.2-16 16-16h32c26.5 0 48 21.5 48 48c0 12.3-4.6 23.5-12.2 32c7.6 8.5 12.2 19.7 12.2 32c0 26.5-21.5 48-48 48z"/></svg>