<svg xmlns="http://www.w3.org/2000/svg" viewBox="0 0 512 512"><!--! Font Awesome Pro 6.5.1 by @fontawesome - https://fontawesome.com License - https://fontawesome.com/license (Commercial License) Copyright 2023 Fonticons, Inc. --><path d="M64 464H96v48H64c-35.3 0-64-28.7-64-64V64C0 28.7 28.7 0 64 0H229.5c17 0 33.3 6.7 45.3 18.7l90.5 90.5c12 12 18.7 28.3 18.7 45.3V288H336V160H256c-17.7 0-32-14.3-32-32V48H64c-8.8 0-16 7.2-16 16V448c0 8.8 7.2 16 16 16zm128-96c0 7.3 2.2 14.4 6.2 20.4l9.8 14.7 9.8-14.7c4-6.1 6.2-13.2 6.2-20.4c0-8.8 7.2-16 16-16s16 7.2 16 16c0 13.6-4 26.9-11.6 38.2L227.2 432l17.2 25.8C252 469.1 256 482.4 256 496c0 8.8-7.2 16-16 16s-16-7.2-16-16c0-7.3-2.2-14.4-6.2-20.4L208 460.8l-9.8 14.7c-4 6.1-6.2 13.2-6.2 20.4c0 8.8-7.2 16-16 16s-16-7.2-16-16c0-13.6 4-26.9 11.6-38.2L188.8 432l-17.2-25.8C164 394.9 160 381.6 160 368c0-8.8 7.2-16 16-16s16 7.2 16 16zM448 496V368c0-8.8 7.2-16 16-16s16 7.2 16 16V480h16c8.8 0 16 7.2 16 16s-7.2 16-16 16H464c-8.8 0-16-7.2-16-16zM299.7 352.6c6.9-1.9 14.3 1 18 7.2L352 416.9l34.3-57.1c3.7-6.2 11.1-9.1 18-7.2s11.7 8.2 11.7 15.4V496c0 8.8-7.2 16-16 16s-16-7.2-16-16V425.8l-18.3 30.5c-2.9 4.8-8.1 7.8-13.7 7.8s-10.8-2.9-13.7-7.8L320 425.8V496c0 8.8-7.2 16-16 16s-16-7.2-16-16V368c0-7.2 4.8-13.5 11.7-15.4z"/></svg>