<svg xmlns="http://www.w3.org/2000/svg" viewBox="0 0 512 512"><!--! Font Awesome Pro 6.5.1 by @fontawesome - https://fontawesome.com License - https://fontawesome.com/license (Commercial License) Copyright 2023 Fonticons, Inc. --><path d="M64 464h96v48H64c-35.3 0-64-28.7-64-64V64C0 28.7 28.7 0 64 0H229.5c17 0 33.3 6.7 45.3 18.7l90.5 90.5c12 12 18.7 28.3 18.7 45.3V288H336V160H256c-17.7 0-32-14.3-32-32V48H64c-8.8 0-16 7.2-16 16V448c0 8.8 7.2 16 16 16zm160-72c0-22.1 17.9-40 40-40h16c22.1 0 40 17.9 40 40v8c0 8.8-7.2 16-16 16s-16-7.2-16-16v-8c0-4.4-3.6-8-8-8H264c-4.4 0-8 3.6-8 8v80c0 4.4 3.6 8 8 8h16c4.4 0 8-3.6 8-8v-8c-8.8 0-16-7.2-16-16s7.2-16 16-16h16c8.8 0 16 7.2 16 16v24c0 22.1-17.9 40-40 40H264c-22.1 0-40-17.9-40-40V392zm160-24V496c0 8.8-7.2 16-16 16s-16-7.2-16-16V368c0-8.8 7.2-16 16-16s16 7.2 16 16zm48-16h48c8.8 0 16 7.2 16 16s-7.2 16-16 16H448v32h32c8.8 0 16 7.2 16 16s-7.2 16-16 16H448v48c0 8.8-7.2 16-16 16s-16-7.2-16-16V432 368c0-8.8 7.2-16 16-16z"/></svg>