<svg xmlns="http://www.w3.org/2000/svg" viewBox="0 0 512 512"><!--! Font Awesome Pro 6.5.1 by @fontawesome - https://fontawesome.com License - https://fontawesome.com/license (Commercial License) Copyright 2023 Fonticons, Inc. --><path d="M64 464H96v48H64c-35.3 0-64-28.7-64-64V64C0 28.7 28.7 0 64 0H229.5c17 0 33.3 6.7 45.3 18.7l90.5 90.5c12 12 18.7 28.3 18.7 45.3V288H336V160H256c-17.7 0-32-14.3-32-32V48H64c-8.8 0-16 7.2-16 16V448c0 8.8 7.2 16 16 16zM205.7 352H232c8.8 0 16 7.2 16 16s-7.2 16-16 16H205.7c-7.5 0-13.7 6.1-13.7 13.7c0 5.2 2.9 9.9 7.6 12.2l31.2 15.6c15.5 7.7 25.2 23.5 25.2 40.8c0 25.2-20.4 45.7-45.7 45.7H176c-8.8 0-16-7.2-16-16s7.2-16 16-16h34.3c7.5 0 13.7-6.1 13.7-13.7c0-5.2-2.9-9.9-7.6-12.2l-31.2-15.6C169.8 430.8 160 415 160 397.7c0-25.2 20.4-45.7 45.7-45.7zM456 352h16c22.1 0 40 17.9 40 40v8c0 8.8-7.2 16-16 16s-16-7.2-16-16v-8c0-4.4-3.6-8-8-8H456c-4.4 0-8 3.6-8 8v80c0 4.4 3.6 8 8 8h16c4.4 0 8-3.6 8-8v-8c-8.8 0-16-7.2-16-16s7.2-16 16-16h16c8.8 0 16 7.2 16 16v24c0 22.1-17.9 40-40 40H456c-22.1 0-40-17.9-40-40V392c0-22.1 17.9-40 40-40zm-152 0c8.8 0 16 7.2 16 16v31.6c0 23 5.5 45.6 16 66c10.5-20.3 16-42.9 16-66V368c0-8.8 7.2-16 16-16s16 7.2 16 16v31.6c0 34.7-10.3 68.7-29.6 97.6l-5.1 7.7c-3 4.5-8 7.1-13.3 7.1s-10.3-2.7-13.3-7.1l-5.1-7.7c-19.3-28.9-29.6-62.9-29.6-97.6V368c0-8.8 7.2-16 16-16z"/></svg>