<svg xmlns="http://www.w3.org/2000/svg" viewBox="0 0 512 512"><!--! Font Awesome Pro 6.5.1 by @fontawesome - https://fontawesome.com License - https://fontawesome.com/license (Commercial License) Copyright 2023 Fonticons, Inc. --><path d="M48 448c0 8.8 7.2 16 16 16v48c-35.3 0-64-28.7-64-64V64C0 28.7 28.7 0 64 0H229.5c17 0 33.3 6.7 45.3 18.7l90.5 90.5c12 12 18.7 28.3 18.7 45.3V288H336V160H256c-17.7 0-32-14.3-32-32V48H64c-8.8 0-16 7.2-16 16V448zm109.7-88.2L192 416.9l34.3-57.1c3.7-6.2 11.1-9.1 18-7.2s11.7 8.2 11.7 15.4V496c0 8.8-7.2 16-16 16s-16-7.2-16-16V425.8l-18.3 30.5c-2.9 4.8-8.1 7.8-13.7 7.8s-10.8-3-13.7-7.8L160 425.8V496c0 8.8-7.2 16-16 16s-16-7.2-16-16V368c0-7.2 4.8-13.5 11.7-15.4s14.3 1 18 7.2zM304 352h32c30.9 0 56 25.1 56 56s-25.1 56-56 56H320v32c0 8.8-7.2 16-16 16s-16-7.2-16-16V448 368c0-8.8 7.2-16 16-16zm32 80c13.3 0 24-10.7 24-24s-10.7-24-24-24H320v48h16zm84.7 11.3c-3-3-4.7-7.1-4.7-11.3V368c0-8.8 7.2-16 16-16s16 7.2 16 16v48h32V368c0-8.8 7.2-16 16-16s16 7.2 16 16v64 64c0 8.8-7.2 16-16 16s-16-7.2-16-16V448H432c-4.2 0-8.3-1.7-11.3-4.7z"/></svg>