<svg xmlns="http://www.w3.org/2000/svg" viewBox="0 0 640 512"><!--! Font Awesome Pro 6.5.1 by @fontawesome - https://fontawesome.com License - https://fontawesome.com/license (Commercial License) Copyright 2023 Fonticons, Inc. --><path d="M320 352c-88.4 0-160-71.6-160-160c0-76.7 62.5-144.7 107.2-179.4c5-3.9 10.9-5.8 16.8-5.8c7.9-.1 16 3.1 22 9.2l46 46 11.3-11.3c11.7-11.7 30.6-12.7 42.3-1C464.5 108 480 160.2 480 192c0 88.4-71.6 160-160 160zm64-111.8c0-36.5-37-73-54.8-88.4c-5.4-4.7-13.1-4.7-18.5 0C293 167.1 256 203.6 256 240.2c0 35.3 28.7 64 64 64s64-28.7 64-64zM32 280c0-13.3 10.7-24 24-24h48c13.3 0 24 10.7 24 24s-10.7 24-24 24H80v80H560V304H536c-13.3 0-24-10.7-24-24s10.7-24 24-24h48c13.3 0 24 10.7 24 24V384c17.7 0 32 14.3 32 32v64c0 17.7-14.3 32-32 32H32c-17.7 0-32-14.3-32-32V416c0-17.7 14.3-32 32-32V280zM48 464H164.3c-2.7-4.7-4.3-10.2-4.3-16s1.6-11.3 4.3-16H48v32zm176-16c0 5.8-1.6 11.3-4.3 16h72.6c-2.7-4.7-4.3-10.2-4.3-16s1.6-11.3 4.3-16H219.7c2.7 4.7 4.3 10.2 4.3 16zm128 0c0 5.8-1.6 11.3-4.3 16h72.6c-2.7-4.7-4.3-10.2-4.3-16s1.6-11.3 4.3-16H347.7c2.7 4.7 4.3 10.2 4.3 16zm240 16V432H475.7c2.7 4.7 4.3 10.2 4.3 16s-1.6 11.3-4.3 16H592z"/></svg>