<svg xmlns="http://www.w3.org/2000/svg" viewBox="0 0 640 512"><!--! Font Awesome Pro 6.5.1 by @fontawesome - https://fontawesome.com License - https://fontawesome.com/license (Commercial License) Copyright 2023 Fonticons, Inc. --><path d="M469.7 248.5c6.6-17.6 10.3-36.6 10.3-56.5c0-31.8-15.5-84-74.4-142.4c-11.8-11.7-30.6-10.7-42.3 1L352 61.9l-46-46c-6.1-6.1-14.1-9.3-22-9.2c-5.9 .1-11.8 1.9-16.8 5.8C222.5 47.3 160 115.3 160 192c0 19.9 3.6 38.9 10.3 56.5c9.5 3.3 18.6 7.6 27.1 12.6c17.2-18.4 38.5-32.8 62.4-42c9.9-28.8 36.7-55 51-67.4c5.4-4.7 13.1-4.7 18.5 0c14.3 12.4 41.2 38.6 51 67.4c23.9 9.2 45.2 23.7 62.4 42c8.5-5.1 17.6-9.3 27.1-12.6zM233.2 361.3c7-41.6 43.2-73.3 86.8-73.3s79.8 31.7 86.8 73.3c1.8 10.7 10.5 18.8 21.2 19.9s20.9-5.1 24.8-15.2c10.4-27 36.6-46 67.2-46c39.8 0 72 32.2 72 72c0 37.7-29 68.7-66 71.8c-.7 .1-1.3 .1-2 .2l-4 0-200 0-200 0-4 0c-.7-.1-1.3-.2-2-.2c-36.9-3-66-34-66-71.8c0-39.8 32.2-72 72-72c30.6 0 56.7 19 67.2 46c3.9 10.1 14.1 16.3 24.8 15.2s19.4-9.2 21.2-19.9zM320 240c-49.4 0-92.7 26.4-116.5 65.8c-21.6-20.9-51-33.8-83.5-33.8C53.7 272 0 325.7 0 392c0 61.4 46.1 112 105.6 119.1c2 .6 4.2 .9 6.4 .9l8 0 200 0 200 0 8 0c2.2 0 4.3-.3 6.4-.9C593.9 504 640 453.4 640 392c0-66.3-53.7-120-120-120c-32.5 0-61.9 12.9-83.5 33.8C412.7 266.4 369.4 240 320 240z"/></svg>