<svg xmlns="http://www.w3.org/2000/svg" viewBox="0 0 512 512"><!--! Font Awesome Pro 6.5.1 by @fontawesome - https://fontawesome.com License - https://fontawesome.com/license (Commercial License) Copyright 2023 Fonticons, Inc. --><path d="M64 32C28.7 32 0 60.7 0 96V416c0 35.3 28.7 64 64 64H448c35.3 0 64-28.7 64-64V160c0-35.3-28.7-64-64-64H289.9L247 53.1C233.5 39.6 215.2 32 196.1 32H64zM48 96c0-8.8 7.2-16 16-16H196.1c6.4 0 12.5 2.5 17 7L256 129.9V304c0 6.1 3.4 11.6 8.8 14.3s11.9 2.1 16.8-1.5L336 276l54.4 40.8c4.8 3.6 11.3 4.2 16.8 1.5s8.8-8.3 8.8-14.3V144h32c8.8 0 16 7.2 16 16V416c0 8.8-7.2 16-16 16H64c-8.8 0-16-7.2-16-16V96z"/></svg>