<svg xmlns="http://www.w3.org/2000/svg" viewBox="0 0 512 512"><!--! Font Awesome Pro 6.5.1 by @fontawesome - https://fontawesome.com License - https://fontawesome.com/license (Commercial License) Copyright 2023 Fonticons, Inc. --><path d="M64 32C28.7 32 0 60.7 0 96V416c0 35.3 28.7 64 64 64H448c35.3 0 64-28.7 64-64V160c0-35.3-28.7-64-64-64H289.9L247 53.1C233.5 39.6 215.2 32 196.1 32H64zM48 96c0-8.8 7.2-16 16-16H196.1c6.4 0 12.5 2.5 17 7l45.3 45.3c7.5 7.5 17.7 11.7 28.3 11.7H448c8.8 0 16 7.2 16 16V416c0 8.8-7.2 16-16 16H64c-8.8 0-16-7.2-16-16V96zM336 272c0-53-43-96-96-96s-96 43-96 96s43 96 96 96c17.8 0 34.4-4.8 48.7-13.2L327 393.1c9.4 9.4 24.6 9.4 33.9 0s9.4-24.6 0-33.9l-38.3-38.3c8.5-14.3 13.3-31 13.3-48.9zm-96-48a48 48 0 1 1 0 96 48 48 0 1 1 0-96z"/></svg>