<svg xmlns="http://www.w3.org/2000/svg" viewBox="0 0 512 512"><!--! Font Awesome Pro 6.5.1 by @fontawesome - https://fontawesome.com License - https://fontawesome.com/license (Commercial License) Copyright 2023 Fonticons, Inc. --><path d="M64 32C28.7 32 0 60.7 0 96V416c0 35.3 28.7 64 64 64H448c35.3 0 64-28.7 64-64V160c0-35.3-28.7-64-64-64H289.9L247 53.1C233.5 39.6 215.2 32 196.1 32H64zM48 96c0-8.8 7.2-16 16-16H196.1c6.4 0 12.5 2.5 17 7l45.3 45.3c7.5 7.5 17.7 11.7 28.3 11.7H448c8.8 0 16 7.2 16 16V416c0 8.8-7.2 16-16 16H64c-8.8 0-16-7.2-16-16V96zM160 208a32 32 0 1 0 -64 0 32 32 0 1 0 64 0zm155.2 9.6c-4.5-6-11.6-9.6-19.2-9.6s-14.7 3.6-19.2 9.6l-54.2 72.2L202.7 265c-4.6-5.7-11.5-9-18.7-9s-14.2 3.3-18.7 9l-64 80c-5.8 7.2-6.9 17.1-2.9 25.4s12.4 13.6 21.6 13.6h80 48H392c9.1 0 17.4-5.1 21.5-13.3s3.2-17.9-2.3-25.1l-96-128z"/></svg>