<svg xmlns="http://www.w3.org/2000/svg" viewBox="0 0 576 512"><!--! Font Awesome Pro 6.5.1 by @fontawesome - https://fontawesome.com License - https://fontawesome.com/license (Commercial License) Copyright 2023 Fonticons, Inc. --><path d="M80 224c0-8 .5-15.8 1.5-23.4L256 316.8V320 480c0 17.7 14.3 32 32 32H431.7c28.6 0 53.7-18.9 61.5-46.4L534.9 320l4.7-16.6c2.8-9.7 4.2-19.7 4.4-29.8c0-.4 0-.8 0-1.2l0-.2 0-.2h0c-.1-16.7-6.8-32.7-18.6-44.6L521 223c-12.7-12.7-22.4-28.5-31.4-47.1c-4.5-9.3-8.7-18.9-13-29l-1.5-3.5c-3.8-8.9-7.8-18.2-12-27.3C431.4 47.6 358.8 0 280 0H256C132.3 0 32 100.3 32 224c0 53.6 18.9 102.9 50.3 141.5c8.9 11 13.7 22.4 13.7 33.1V488c0 13.3 10.7 24 24 24s24-10.7 24-24V398.6c0-24.9-10.9-46.8-24.5-63.4C94.8 304.8 80 266.2 80 224zm195.3 48L95.3 152C122.8 90.7 184.4 48 256 48h24c60.1 0 115.7 36.7 139.6 88.3c3.9 8.4 7.5 17 11.4 25.9l1.5 3.5c4.3 10.1 8.9 20.7 13.9 31.1c10.1 20.8 22.5 42 40.6 60.1l4.4 4.4c2.8 2.8 4.5 6.6 4.6 10.6H304 275.3zM368 224a32 32 0 1 0 0-64 32 32 0 1 0 0 64zm63.7 240H304V320H484.9l-6.9 24H368c-8.8 0-16 7.2-16 16s7.2 16 16 16H468.9l-9.1 32H368c-8.8 0-16 7.2-16 16s7.2 16 16 16h82.6l-3.5 12.4c-2 6.9-8.2 11.6-15.4 11.6z"/></svg>