<svg xmlns="http://www.w3.org/2000/svg" viewBox="0 0 512 512"><!--! Font Awesome Pro 6.5.1 by @fontawesome - https://fontawesome.com License - https://fontawesome.com/license (Commercial License) Copyright 2023 Fonticons, Inc. --><path d="M225.8 468.2c8.2 7.6 19 11.9 30.2 11.9s22-4.2 30.2-11.9l2.5-2.3L445.7 320H375.2L256 430.7 136.8 320H66.3L223.3 465.9l2.5 2.3zM0 192.8c0 34.9 12.1 68.5 33.9 95.2H56h46.3 20.3c19.4 0 36.9-11.7 44.3-29.5l17.6-42.2 56.8 126.3c2.5 5.6 8.1 9.3 14.3 9.4s11.9-3.3 14.6-8.8L320 243.8l8.8 17.7c8.1 16.3 24.8 26.5 42.9 26.5h37.9H456h22.1c21.8-26.7 33.9-60.3 33.9-95.2v-3.3c0-70.4-50-130.8-119.2-144C353.4 37.9 313.1 47 281 69.6l0 0c-4 2.8-7.8 5.8-11.5 9c-4.7 4.1-9.3 8.5-13.5 13.3c-7.5-8.4-15.9-15.9-25-22.3C198.9 47 158.6 37.9 119.2 45.4C50 58.6 0 119.1 0 189.5v3.3zM442.2 256H371.8c-6.1 0-11.6-3.4-14.3-8.8l-23.2-46.3c-2.7-5.4-8.2-8.8-14.3-8.8s-11.6 3.4-14.3 8.8l-48.9 97.9L198.6 169.4c-2.6-5.8-8.4-9.5-14.8-9.4s-12.1 4-14.5 9.8l-31.8 76.3c-2.5 6-8.3 9.8-14.8 9.8H69.8C55.8 238.1 48 215.9 48 192.8v-3.3c0-47.3 33.6-88 80.1-96.9c34-6.5 69 5.4 92 31.2l0 0 .1 .1 17.8 20c.3 .4 .7 .7 1 1.1c4.5 4.5 10.6 7 16.9 7s12.4-2.5 16.9-7c.4-.3 .7-.7 1-1.1l17.8-20 .1-.1 .1-.1c23.1-25.9 58-37.7 92-31.2c46.5 8.9 80.1 49.5 80.1 96.9v3.3c0 23.1-7.8 45.3-21.8 63.2z"/></svg>