<svg xmlns="http://www.w3.org/2000/svg" viewBox="0 0 576 512"><!--! Font Awesome Pro 6.5.1 by @fontawesome - https://fontawesome.com License - https://fontawesome.com/license (Commercial License) Copyright 2023 Fonticons, Inc. --><path d="M24 0C10.7 0 0 10.7 0 24S10.7 48 24 48h8V67c0 40.3 16 79 44.5 107.5L158.1 256 76.5 337.5C48 366 32 404.7 32 445v19H24c-13.3 0-24 10.7-24 24s10.7 24 24 24H330.8c-18.3-12.9-34.1-29.2-46.3-48H80V445c0-27.6 11-54 30.5-73.5L192 289.9l64.5 64.5c1.5-19.3 6-37.7 13.2-54.7L225.9 256l81.5-81.5C336 146 352 107.3 352 67V48h8c13.3 0 24-10.7 24-24s-10.7-24-24-24H24zM192 222.1l-81.5-81.5C91 121 80 94.6 80 67V48H304V67c0 27.6-11 54-30.5 73.5L192 222.1zM576 368a144 144 0 1 0 -288 0 144 144 0 1 0 288 0zM432 288c8.8 0 16 7.2 16 16v48h32c8.8 0 16 7.2 16 16s-7.2 16-16 16H432c-8.8 0-16-7.2-16-16V304c0-8.8 7.2-16 16-16z"/></svg>