<svg xmlns="http://www.w3.org/2000/svg" viewBox="0 0 576 512"><!--! Font Awesome Pro 6.5.1 by @fontawesome - https://fontawesome.com License - https://fontawesome.com/license (Commercial License) Copyright 2023 Fonticons, Inc. --><path d="M303.5 5.7c-9-7.6-22.1-7.6-31.1 0l-264 224c-10.1 8.6-11.3 23.7-2.8 33.8s23.7 11.3 33.8 2.8L64 245.5V432c0 44.2 35.8 80 80 80H432c44.2 0 80-35.8 80-80V245.5l24.5 20.8c10.1 8.6 25.3 7.3 33.8-2.8s7.3-25.3-2.8-33.8L512 182.6V56c0-13.3-10.7-24-24-24s-24 10.7-24 24v85.9L303.5 5.7zM464 204.8V432c0 17.7-14.3 32-32 32H144c-17.7 0-32-14.3-32-32V204.8L288 55.5 464 204.8zM272 192c-8.8 0-16 7.2-16 16v48H208c-8.8 0-16 7.2-16 16v32c0 8.8 7.2 16 16 16h48v48c0 8.8 7.2 16 16 16h32c8.8 0 16-7.2 16-16V320h48c8.8 0 16-7.2 16-16V272c0-8.8-7.2-16-16-16H320V208c0-8.8-7.2-16-16-16H272z"/></svg>