<svg xmlns="http://www.w3.org/2000/svg" viewBox="0 0 640 512"><!--! Font Awesome Pro 6.5.1 by @fontawesome - https://fontawesome.com License - https://fontawesome.com/license (Commercial License) Copyright 2023 Fonticons, Inc. --><path d="M33.5 1.9l112 48c12.2 5.2 17.8 19.3 12.6 31.5s-19.3 17.8-31.5 12.6l-112-48C2.4 40.8-3.3 26.7 1.9 14.5S21.3-3.3 33.5 1.9zm112 204.1l-112 48c-12.2 5.2-26.3-.4-31.5-12.6s.4-26.3 12.6-31.5l112-48c12.2-5.2 26.3 .4 31.5 12.6s-.4 26.3-12.6 31.5zM308.6 2.9c7.1-3.8 15.7-3.8 22.8 0l104 56c11.7 6.3 16 20.8 9.8 32.5c-5.7 10.6-18.2 15.1-29.1 11.3V128H368V77.1L320 51.3 272 77.1V128H224V102.6c-11 3.9-23.4-.7-29.1-11.3c-6.3-11.7-1.9-26.2 9.8-32.5l104-56zM263.4 208L212.2 464H288V416c0-17.7 14.3-32 32-32s32 14.3 32 32v48h75.8L376.6 208H263.4zM352 512H288 189.1 152c-13.3 0-24-10.7-24-24s10.7-24 24-24h11.2l51.2-256.1c-12.5-.8-22.4-11.2-22.4-23.9c0-13.3 10.7-24 24-24h8H416h8c13.3 0 24 10.7 24 24c0 12.7-9.9 23.1-22.4 23.9L476.8 464H488c13.3 0 24 10.7 24 24s-10.7 24-24 24H450.9 352zM638.1 14.6c5.2 12.2-.4 26.3-12.6 31.5l-112 48c-12.2 5.2-26.3-.4-31.5-12.6s.4-26.3 12.6-31.5l112-48c12.2-5.2 26.3 .4 31.5 12.6zm-156.1 160c5.2-12.2 19.3-17.8 31.5-12.6l112 48c12.2 5.2 17.8 19.3 12.6 31.5s-19.3 17.8-31.5 12.6l-112-48c-12.2-5.2-17.8-19.3-12.6-31.5z"/></svg>