<svg xmlns="http://www.w3.org/2000/svg" viewBox="0 0 512 512"><!--! Font Awesome Pro 6.5.1 by @fontawesome - https://fontawesome.com License - https://fontawesome.com/license (Commercial License) Copyright 2023 Fonticons, Inc. --><path d="M352 24c0 13.3 10.7 24 24 24h38.1L371.2 90.9C340.3 64.2 300 48 256 48C158.8 48 80 126.8 80 224c0 89.1 66.2 162.7 152 174.4V416H208c-13.3 0-24 10.7-24 24s10.7 24 24 24h24v24c0 13.3 10.7 24 24 24s24-10.7 24-24V464h24c13.3 0 24-10.7 24-24s-10.7-24-24-24H280V398.4c85.8-11.7 152-85.3 152-174.4c0-35.8-10.7-69.2-29.1-97L448 81.9V120c0 13.3 10.7 24 24 24s24-10.7 24-24V24c0-13.3-10.7-24-24-24H376c-13.3 0-24 10.7-24 24zM256 96a128 128 0 1 1 0 256 128 128 0 1 1 0-256z"/></svg>