<svg xmlns="http://www.w3.org/2000/svg" viewBox="0 0 512 512"><!--! Font Awesome Pro 6.5.1 by @fontawesome - https://fontawesome.com License - https://fontawesome.com/license (Commercial License) Copyright 2023 Fonticons, Inc. --><path d="M208 416c0-26.5-21.5-48-48-48H64c-8.8 0-16-7.2-16-16V64c0-8.8 7.2-16 16-16H448c8.8 0 16 7.2 16 16V352c0 8.8-7.2 16-16 16H309.3c-10.4 0-20.5 3.4-28.8 9.6L208 432V416zm-.2 76.2l.2-.2 101.3-76H448c35.3 0 64-28.7 64-64V64c0-35.3-28.7-64-64-64H64C28.7 0 0 28.7 0 64V352c0 35.3 28.7 64 64 64h48 48v48 4 .3 6.4V496c0 6.1 3.4 11.6 8.8 14.3s11.9 2.1 16.8-1.5L202.7 496l5.1-3.8zM96 180.8c0 12.3 6.2 23.8 16.4 30.7l29.4 19.6c1.3 .9 2.2 2.4 2.2 4c0 2.7-2.2 4.8-4.8 4.8H112c-8.8 0-16 7.2-16 16s7.2 16 16 16h27.2c20.3 0 36.8-16.5 36.8-36.8c0-12.3-6.2-23.8-16.4-30.7l-29.4-19.6c-1.3-.9-2.2-2.4-2.2-4c0-2.7 2.2-4.8 4.8-4.8H152c8.8 0 16-7.2 16-16s-7.2-16-16-16H132.8C112.5 144 96 160.5 96 180.8zM372.8 144c-20.3 0-36.8 16.5-36.8 36.8c0 12.3 6.2 23.8 16.4 30.7l29.4 19.6c1.3 .9 2.2 2.4 2.2 4c0 2.7-2.2 4.8-4.8 4.8H352c-8.8 0-16 7.2-16 16s7.2 16 16 16h27.2c20.3 0 36.8-16.5 36.8-36.8c0-12.3-6.2-23.8-16.4-30.7l-29.4-19.6c-1.3-.9-2.2-2.4-2.2-4c0-2.7 2.2-4.8 4.8-4.8H392c8.8 0 16-7.2 16-16s-7.2-16-16-16H372.8zm-152 6.4c-4.1-5.5-11.3-7.8-17.9-5.6S192 153.1 192 160v96c0 8.8 7.2 16 16 16s16-7.2 16-16V208l19.2 25.6c3 4 7.8 6.4 12.8 6.4s9.8-2.4 12.8-6.4L288 208v48c0 8.8 7.2 16 16 16s16-7.2 16-16V160c0-6.9-4.4-13-10.9-15.2s-13.7 .1-17.9 5.6L256 197.3l-35.2-46.9z"/></svg>