<svg xmlns="http://www.w3.org/2000/svg" viewBox="0 0 640 512"><!--! Font Awesome Pro 6.5.1 by @fontawesome - https://fontawesome.com License - https://fontawesome.com/license (Commercial License) Copyright 2023 Fonticons, Inc. --><path d="M256 48c68.7 0 129.5 33.3 167.4 84.6c16.7-8 37.2-5.5 51.5 7.4c5.6 5.1 11.1 10.2 16.6 15.5C452.5 64.1 361.7 0 256 0C114.6 0 0 114.6 0 256S114.6 512 256 512c33.6 0 65.7-6.5 95.1-18.3c-12.6-11.6-23.6-24.8-32.8-39.2c-19.7 6.2-40.6 9.5-62.3 9.5C141.1 464 48 370.9 48 256S141.1 48 256 48zM368 152c0-13.3-10.7-24-24-24s-24 10.7-24 24v48c0 11.2 7.6 20.6 18 23.2c9-12.9 19.1-25.7 30-38.3V152zm-176 0c0-13.3-10.7-24-24-24s-24 10.7-24 24v48c0 13.3 10.7 24 24 24s24-10.7 24-24V152zm88 0c0-13.3-10.7-24-24-24s-24 10.7-24 24v48c0 13.3 10.7 24 24 24s24-10.7 24-24V152zM480 511.9c88.4 0 160-71.6 160-160c0-31.8-15.5-84-74.4-142.4c-11.8-11.7-30.6-10.7-42.3 1L512 221.8l-46-46c-6.1-6.1-14.1-9.3-22-9.2c-5.9 .1-11.8 1.9-16.8 5.8C382.5 207.2 320 275.2 320 351.9c0 88.4 71.6 160 160 160zM544 400c0 35.3-28.7 64-64 64s-64-28.7-64-64c0-36.5 37-73 54.8-88.4c5.4-4.7 13.1-4.7 18.5 0C507 327 544 363.5 544 400z"/></svg>