<svg xmlns="http://www.w3.org/2000/svg" viewBox="0 0 640 512"><!--! Font Awesome Pro 6.5.1 by @fontawesome - https://fontawesome.com License - https://fontawesome.com/license (Commercial License) Copyright 2023 Fonticons, Inc. --><path d="M384 80H64c-8.8 0-16 7.2-16 16V416c0 8.8 7.2 16 16 16H306.1c8.1 17.5 18.8 33.7 31.5 48H64c-35.3 0-64-28.7-64-64V96C0 60.7 28.7 32 64 32H384c35.3 0 64 28.7 64 64v32.2c-12.6-1.2-25.5 2.7-35.5 11.7c-4.2 3.8-8.4 7.6-12.5 11.5V96c0-8.8-7.2-16-16-16zM293.8 311.3c-1.8 .5-3.8 .7-5.8 .7c-13.3 0-24-10.7-24-24s10.7-24 24-24c8.2 0 15.5 4.1 19.8 10.4c-5.8 12.1-10.6 24.5-14 36.9zM96 160c0-17.7 14.3-32 32-32H320c17.7 0 32 14.3 32 32v32c0 17.7-14.3 32-32 32H128c-17.7 0-32-14.3-32-32V160zm32 104a24 24 0 1 1 0 48 24 24 0 1 1 0-48zm56 24a24 24 0 1 1 48 0 24 24 0 1 1 -48 0zM480 511.9c-88.4 0-160-71.6-160-160c0-76.7 62.5-144.7 107.2-179.4c5-3.9 10.9-5.8 16.8-5.8c7.9-.1 16 3.1 22 9.2l46 46 11.3-11.3c11.7-11.7 30.6-12.7 42.3-1C624.5 267.8 640 320 640 351.9c0 88.4-71.6 160-160 160zM544 400c0-36.5-37-73-54.8-88.4c-5.4-4.7-13.1-4.7-18.5 0C453 327 416 363.5 416 400c0 35.3 28.7 64 64 64s64-28.7 64-64z"/></svg>