<svg xmlns="http://www.w3.org/2000/svg" viewBox="0 0 512 512"><!--! Font Awesome Pro 6.5.1 by @fontawesome - https://fontawesome.com License - https://fontawesome.com/license (Commercial License) Copyright 2023 Fonticons, Inc. --><path d="M192 64A64 64 0 1 0 64 64a64 64 0 1 0 128 0zM105.6 208h44.8c16.6 0 30.5 12.8 31.9 29.3l4.1 49.3c.8 9.3-6.6 17.3-15.9 17.3H168 88 85.6c-9.4 0-16.7-8-15.9-17.3l4.1-49.3C75.1 220.8 89 208 105.6 208zM144 352V488c0 13.3 10.7 24 24 24s24-10.7 24-24V348.3c26.5-9.5 44.7-35.8 42.2-65.6l-4.1-49.3C226.7 191.9 192 160 150.4 160H105.6c-41.6 0-76.3 31.9-79.7 73.4l-4.1 49.3c-2.5 29.8 15.7 56.1 42.2 65.6V488c0 13.3 10.7 24 24 24s24-10.7 24-24V352h32zM448 64A64 64 0 1 0 320 64a64 64 0 1 0 128 0zM368.3 208h31.4c7.1 0 13.4 4.7 15.4 11.6L448.4 336H319.6l33.3-116.4c2-6.9 8.2-11.6 15.4-11.6zm0-48c-28.6 0-53.7 18.9-61.5 46.4L267.7 343.2c-5.8 20.4 9.5 40.8 30.8 40.8H320V488c0 13.3 10.7 24 24 24s24-10.7 24-24V384h32V488c0 13.3 10.7 24 24 24s24-10.7 24-24V384h21.6c21.3 0 36.6-20.3 30.8-40.8L461.3 206.4c-7.8-27.5-33-46.4-61.5-46.4H368.3z"/></svg>