<svg xmlns="http://www.w3.org/2000/svg" viewBox="0 0 512 512"><!--! Font Awesome Pro 6.5.1 by @fontawesome - https://fontawesome.com License - https://fontawesome.com/license (Commercial License) Copyright 2023 Fonticons, Inc. --><path d="M192 64A64 64 0 1 0 64 64a64 64 0 1 0 128 0zM112.3 208h31.4c7.1 0 13.4 4.7 15.4 11.6L192.4 336H63.6L96.9 219.6c2-6.9 8.2-11.6 15.4-11.6zm0-48c-28.6 0-53.7 18.9-61.5 46.4L11.7 343.2C5.8 363.7 21.2 384 42.4 384H64V488c0 13.3 10.7 24 24 24s24-10.7 24-24V384h32V488c0 13.3 10.7 24 24 24s24-10.7 24-24V384h21.6c21.3 0 36.6-20.3 30.8-40.8L205.3 206.4c-7.9-27.5-33-46.4-61.5-46.4H112.3zM448 64A64 64 0 1 0 320 64a64 64 0 1 0 128 0zM368.3 208h31.4c7.1 0 13.4 4.7 15.4 11.6L448.4 336H319.6l33.3-116.4c2-6.9 8.2-11.6 15.4-11.6zm0-48c-28.6 0-53.7 18.9-61.5 46.4L267.7 343.2c-5.8 20.4 9.5 40.8 30.8 40.8H320V488c0 13.3 10.7 24 24 24s24-10.7 24-24V384h32V488c0 13.3 10.7 24 24 24s24-10.7 24-24V384h21.6c21.3 0 36.6-20.3 30.8-40.8L461.3 206.4c-7.8-27.5-33-46.4-61.5-46.4H368.3z"/></svg>