<svg xmlns="http://www.w3.org/2000/svg" viewBox="0 0 640 512"><!--! Font Awesome Pro 6.5.1 by @fontawesome - https://fontawesome.com License - https://fontawesome.com/license (Commercial License) Copyright 2023 Fonticons, Inc. --><path d="M168 112c-4.4 0-8 3.6-8 8v79.1c0 22.6-18.3 40.9-40.9 40.9c-15 0-26.5-8.1-33.5-16.3c-4.9-5.9-9.8-7.7-13.6-7.7c-4 0-9.5 2.1-14.7 9.1S48 243 48 256s4 23.8 9.3 30.9s10.7 9.1 14.7 9.1c3.7 0 8.6-1.8 13.6-7.7c7-8.3 18.5-16.3 33.5-16.3c22.6 0 40.9 18.3 40.9 40.9V392c0 4.4 3.6 8 8 8h76.5c-2.9-7.4-4.5-15.5-4.5-24c0-43.1 39.4-72 80-72s80 28.9 80 72c0 8.5-1.6 16.6-4.5 24H472c4.4 0 8-3.6 8-8V312.9c0-22.6 18.3-40.9 40.9-40.9c15 0 26.5 8.1 33.5 16.3c4.9 5.9 9.8 7.7 13.6 7.7c4 0 9.5-2.1 14.7-9.1s9.3-17.9 9.3-30.9s-4-23.8-9.3-30.9s-10.7-9.1-14.7-9.1c-3.7 0-8.6 1.8-13.6 7.7c-7 8.3-18.5 16.3-33.5 16.3c-22.6 0-40.9-18.3-40.9-40.9V120c0-4.4-3.6-8-8-8H395.5c2.9 7.4 4.5 15.5 4.5 24c0 43.1-39.4 72-80 72s-80-28.9-80-72c0-8.5 1.6-16.6 4.5-24H168zm-56 8c0-30.9 25.1-56 56-56H270.1C288.8 64 304 79.2 304 97.9c0 10.1-4.5 18.5-9.9 24.2c-4.2 4.3-6.1 9.2-6.1 13.9c0 9.9 10.7 24 32 24s32-14.1 32-24c0-4.7-1.9-9.5-6.1-13.9c-5.5-5.7-9.9-14.1-9.9-24.2C336 79.2 351.2 64 369.9 64H472c30.9 0 56 25.1 56 56v62.6c10.9-8.8 24.6-14.6 40-14.6c22.5 0 41 12.2 53.1 28.3S640 233.6 640 256s-6.8 43.5-18.9 59.7S590.5 344 568 344c-15.4 0-29.1-5.8-40-14.6V392c0 30.9-25.1 56-56 56H369.9c-18.7 0-33.9-15.2-33.9-33.9c0-10.1 4.5-18.5 9.9-24.2c4.2-4.3 6.1-9.2 6.1-13.9c0-9.9-10.7-24-32-24s-32 14.1-32 24c0 4.7 1.9 9.5 6.1 13.9c5.5 5.7 9.9 14.1 9.9 24.2c0 18.7-15.2 33.9-33.9 33.9H168c-30.9 0-56-25.1-56-56V329.4C101.1 338.2 87.4 344 72 344c-22.5 0-41-12.2-53.1-28.3S0 278.4 0 256s6.8-43.5 18.9-59.7S49.5 168 72 168c15.4 0 29.1 5.8 40 14.6V120z"/></svg>