<svg xmlns="http://www.w3.org/2000/svg" viewBox="0 0 640 512"><!--! Font Awesome Pro 6.5.1 by @fontawesome - https://fontawesome.com License - https://fontawesome.com/license (Commercial License) Copyright 2023 Fonticons, Inc. --><path d="M188.4 48c-26.3 0-50.4 14.3-63.1 37.3L58.9 206C51.7 219 48 233.6 48 248.4V400H96V248.4c0-13.6 4.5-27.2 9.7-39c5.4-12.1 12.5-24.4 19.7-35.8c6.1-9.6 12.6-19.2 18.4-27.8c1.1-1.6 2.2-3.2 3.2-4.7c6.9-10.2 12.3-18.4 15.9-24.8c5.3-9.6 16.4-14.4 27-11.7s18 12.3 18 23.2V448c0 8.8 7.2 16 16 16H416c8.8 0 16-7.2 16-16V128c0-11 7.4-20.5 18-23.2s21.7 2.1 27 11.7c3.5 6.4 9 14.7 15.9 24.8c1 1.5 2.1 3.1 3.2 4.7c5.9 8.6 12.3 18.2 18.4 27.8c7.2 11.4 14.4 23.7 19.7 35.8c5.2 11.8 9.7 25.4 9.7 39V400h48V248.4c0-14.8-3.7-29.4-10.9-42.4L514.7 85.3C502.1 62.3 477.9 48 451.6 48H444c-.4 0-.9 0-1.3 0c-1 .1-2 0-3 0H421.2c-10.8 45.9-52 80-101.2 80s-90.4-34.1-101.2-80H200.3c-1 .1-2 .1-3 0c-.4 0-.9 0-1.3 0h-7.6zM83.2 62.2C104.3 23.8 144.6 0 188.4 0H196c.8 0 1.5 0 2.3 0c.6 0 1.1 0 1.7 0h24c23 0 37.7 18.2 41.1 35.2C270.3 60.7 292.9 80 320 80s49.7-19.3 54.9-44.8C378.3 18.2 393 0 416 0h24c.6 0 1.1 0 1.7 0c.8 0 1.5 0 2.3 0h7.6c43.8 0 84.1 23.8 105.1 62.2l66.4 120.7c11 20.1 16.8 42.6 16.8 65.5V424c0 13.3-10.7 24-24 24H520c-13.3 0-24-10.7-24-24V248.4c0-3.7-1.4-10.1-5.6-19.4c-2.7-6.2-6.3-12.8-10.4-19.8V448c0 35.3-28.7 64-64 64H224c-35.3 0-64-28.7-64-64V209.2c-4.1 7-7.7 13.6-10.4 19.8c-4.2 9.4-5.6 15.7-5.6 19.4V424c0 13.3-10.7 24-24 24H24c-13.3 0-24-10.7-24-24V248.4c0-22.9 5.8-45.5 16.8-65.5L83.2 62.2z"/></svg>