<svg xmlns="http://www.w3.org/2000/svg" viewBox="0 0 576 512"><!--! Font Awesome Pro 6.5.1 by @fontawesome - https://fontawesome.com License - https://fontawesome.com/license (Commercial License) Copyright 2023 Fonticons, Inc. --><path d="M64 24l0 8H48C21.5 32 0 53.5 0 80V368c0 26.5 21.5 48 48 48H64l0 72c0 13.3 10.7 24 24 24s24-10.7 24-24l0-72H464l0 72c0 13.3 10.7 24 24 24s24-10.7 24-24l0-72h16c26.5 0 48-21.5 48-48V80c0-26.5-21.5-48-48-48H512l0-8c0-13.3-10.7-24-24-24s-24 10.7-24 24l0 8H112l0-8c0-13.3-10.7-24-24-24S64 10.7 64 24zM528 80V368H48L48 80H528z"/></svg>