<svg xmlns="http://www.w3.org/2000/svg" viewBox="0 0 640 512"><!--! Font Awesome Pro 6.5.1 by @fontawesome - https://fontawesome.com License - https://fontawesome.com/license (Commercial License) Copyright 2023 Fonticons, Inc. --><path d="M64 24l0 8H48C21.5 32 0 53.5 0 80V368c0 26.5 21.5 48 48 48H64l0 72c0 13.3 10.7 24 24 24s24-10.7 24-24l0-72H384c-10.8-14.3-19.2-30.5-24.7-48H48L48 80H528v80.8c16.9 1.7 33.1 6 48 12.5V80c0-26.5-21.5-48-48-48H512l0-8c0-13.3-10.7-24-24-24s-24 10.7-24 24l0 8H112l0-8c0-13.3-10.7-24-24-24S64 10.7 64 24zM640 320c0-47.4-25.7-88.8-64-110.9c-7.4-4.3-16 1.5-16 10V304c0 26.5-21.5 48-48 48s-48-21.5-48-48V219.1c0-8.5-8.6-14.3-16-10c-38.3 22.1-64 63.5-64 110.9c0 40.4 18.7 76.5 48 99.9V476c0 19.9 16.1 36 36 36h88c19.9 0 36-16.1 36-36V419.9c29.3-23.5 48-59.5 48-99.9zM512.3 192l-.3 0-.3 0h.7z"/></svg>