<svg xmlns="http://www.w3.org/2000/svg" viewBox="0 0 512 512"><!--! Font Awesome Pro 6.5.1 by @fontawesome - https://fontawesome.com License - https://fontawesome.com/license (Commercial License) Copyright 2023 Fonticons, Inc. --><path d="M232 24c0-13.3 10.7-24 24-24s24 10.7 24 24V64H417c9.5 0 18.5 4.2 24.6 11.5l61.9 74.2c4.9 5.9 4.9 14.6 0 20.5l-61.9 74.2c-6.1 7.3-15.1 11.5-24.6 11.5H280V488c0 13.3-10.7 24-24 24s-24-10.7-24-24V256H80c-26.5 0-48-21.5-48-48V112c0-26.5 21.5-48 48-48H232V24zM449.5 160l-40-48H80v96H409.5l40-48z"/></svg>