<svg xmlns="http://www.w3.org/2000/svg" viewBox="0 0 640 512"><!--! Font Awesome Pro 6.5.1 by @fontawesome - https://fontawesome.com License - https://fontawesome.com/license (Commercial License) Copyright 2023 Fonticons, Inc. --><path d="M38.8 5.1C28.4-3.1 13.3-1.2 5.1 9.2S-1.2 34.7 9.2 42.9l592 464c10.4 8.2 25.5 6.3 33.7-4.1s6.3-25.5-4.1-33.7l-8.5-6.6c1.1-4.7 1.6-9.5 1.6-14.5V64c0-35.3-28.7-64-64-64s-64 28.7-64 64V363.5l-32-25.1V192c0-35.3-28.7-64-64-64s-64 28.7-64 64v46L38.8 5.1zM384 275.7V192c0-8.8 7.2-16 16-16s16 7.2 16 16V300.8l-32-25.1zM544 401.1V64c0-8.8 7.2-16 16-16s16 7.2 16 16V426.2l-32-25.1zM559.6 512l.4 0 .4 0h-.8zM336 360.7V448c0 35.3 28.7 64 64 64c31 0 56.9-22.1 62.8-51.4L416 423.8V448c0 8.8-7.2 16-16 16s-16-7.2-16-16V398.5l-48-37.8zM211.5 262.7C190.5 273.1 176 294.9 176 320V448c0 35.3 28.7 64 64 64s64-28.7 64-64V335.5l-92.5-72.9zM256 448c0 8.8-7.2 16-16 16s-16-7.2-16-16V320c0-8.8 7.2-16 16-16s16 7.2 16 16V448zM96 448a16 16 0 1 1 -32 0 16 16 0 1 1 32 0zM80 384a64 64 0 1 0 0 128 64 64 0 1 0 0-128z"/></svg>