<svg xmlns="http://www.w3.org/2000/svg" viewBox="0 0 640 512"><!--! Font Awesome Pro 6.5.1 by @fontawesome - https://fontawesome.com License - https://fontawesome.com/license (Commercial License) Copyright 2023 Fonticons, Inc. --><path d="M38.8 5.1C28.4-3.1 13.3-1.2 5.1 9.2S-1.2 34.7 9.2 42.9l592 464c10.4 8.2 25.5 6.3 33.7-4.1s6.3-25.5-4.1-33.7l-30-23.5c4.6-8.8 7.2-18.9 7.2-29.6V96c0-35.3-28.7-64-64-64H96c-6.7 0-13.1 1-19.2 2.9L38.8 5.1zM134.4 80H544c8.8 0 16 7.2 16 16V413.6L508.2 373c2.4-3.7 3.8-8.2 3.8-13c0-13.3-10.7-24-24-24H461l-67.2-52.6c4 2.9 8.9 4.6 14.2 4.6h80c13.3 0 24-10.7 24-24s-10.7-24-24-24H408c-13.3 0-24 10.7-24 24c0 7.4 3.4 14 8.6 18.4L134.4 80zm353 400l-60.9-48H96c-8.8 0-16-7.2-16-16V159L32 121.2V416c0 35.3 28.7 64 64 64H487.4zM365.5 384l-59.9-47.2C295.5 339.6 288 348.9 288 360c0 13.3 10.7 24 24 24h53.5zM243.7 288l-60.9-48H152c-13.3 0-24 10.7-24 24s10.7 24 24 24h91.7zM152 336c-13.3 0-24 10.7-24 24s10.7 24 24 24h80c13.3 0 24-10.7 24-24s-10.7-24-24-24H152z"/></svg>