<svg xmlns="http://www.w3.org/2000/svg" viewBox="0 0 640 512"><!--! Font Awesome Pro 6.5.1 by @fontawesome - https://fontawesome.com License - https://fontawesome.com/license (Commercial License) Copyright 2023 Fonticons, Inc. --><path d="M111 7c9.4-9.4 24.6-9.4 33.9 0l88 88c9.4 9.4 9.4 24.6 0 33.9s-24.6 9.4-33.9 0l-47-47V360c0 39.8 32.2 72 72 72s72-32.2 72-72V152c0-66.3 53.7-120 120-120s120 53.7 120 120l0 278.1 47-47c9.4-9.4 24.6-9.4 33.9 0s9.4 24.6 0 33.9l-88 88c-9.4 9.4-24.6 9.4-33.9 0l-88-88c-9.4-9.4-9.4-24.6 0-33.9s24.6-9.4 33.9 0l47 47V152c0-39.8-32.2-72-72-72s-72 32.2-72 72V360c0 66.3-53.7 120-120 120s-120-53.7-120-120l0-278.1L57 129c-9.4 9.4-24.6 9.4-33.9 0s-9.4-24.6 0-33.9L111 7z"/></svg>