<svg xmlns="http://www.w3.org/2000/svg" viewBox="0 0 640 512"><!--! Font Awesome Pro 6.5.1 by @fontawesome - https://fontawesome.com License - https://fontawesome.com/license (Commercial License) Copyright 2023 Fonticons, Inc. --><path d="M240 119c0 22.6-18.3 41-41 41H152V360c0 39.8 32.2 72 72 72s72-32.2 72-72V152c0-66.3 53.7-120 120-120s120 53.7 120 120V352h47c22.6 0 41 18.3 41 41c0 10.9-4.3 21.3-12 29l-83 83c-4.5 4.5-10.6 7-17 7s-12.5-2.5-17-7l-83-83c-7.7-7.7-12-18.1-12-29c0-22.6 18.3-41 41-41h47V152c0-39.8-32.2-72-72-72s-72 32.2-72 72V360c0 66.3-53.7 120-120 120s-120-53.7-120-120V160H57c-22.6 0-41-18.3-41-41c0-10.9 4.3-21.3 12-29L111 7c4.5-4.5 10.6-7 17-7s12.5 2.5 17 7l83 83c7.7 7.7 12 18.1 12 29zM73.9 112l108.1 0L128 57.9 73.9 112zm384 288L512 454.1 566.1 400H457.9z"/></svg>