<svg xmlns="http://www.w3.org/2000/svg" viewBox="0 0 640 512"><!--! Font Awesome Pro 6.5.1 by @fontawesome - https://fontawesome.com License - https://fontawesome.com/license (Commercial License) Copyright 2023 Fonticons, Inc. --><path d="M48 128c0-8.8 7.2-16 16-16H576c8.8 0 16 7.2 16 16v35c-41.4 10.7-72 48.2-72 93s30.6 82.3 72 93v35c0 8.8-7.2 16-16 16H64c-8.8 0-16-7.2-16-16V128zM64 64C28.7 64 0 92.7 0 128V384c0 35.3 28.7 64 64 64H576c35.3 0 64-28.7 64-64V322.7c0-11.2-12.8-18.7-24-18.7c-26.5 0-48-21.5-48-48s21.5-48 48-48c11.2 0 24-7.5 24-18.7V128c0-35.3-28.7-64-64-64H64zm384 96a16 16 0 1 0 -32 0 16 16 0 1 0 32 0zm0 64a16 16 0 1 0 -32 0 16 16 0 1 0 32 0zm-16 80a16 16 0 1 0 0-32 16 16 0 1 0 0 32zm16 48a16 16 0 1 0 -32 0 16 16 0 1 0 32 0z"/></svg>