<svg xmlns="http://www.w3.org/2000/svg" viewBox="0 0 576 512"><!--! Font Awesome Pro 6.5.1 by @fontawesome - https://fontawesome.com License - https://fontawesome.com/license (Commercial License) Copyright 2023 Fonticons, Inc. --><path d="M0 128C0 92.7 28.7 64 64 64H512c35.3 0 64 28.7 64 64v60.1c0 10.2-6.4 19.2-16 22.6c-18.7 6.6-32 24.4-32 45.3s13.3 38.7 32 45.3c9.6 3.4 16 12.5 16 22.6V384c0 35.3-28.7 64-64 64H64c-35.3 0-64-28.7-64-64V323.9c0-10.2 6.4-19.2 16-22.6c18.7-6.6 32-24.4 32-45.3s-13.3-38.7-32-45.3c-9.6-3.4-16-12.5-16-22.6V128zm64-16c-8.8 0-16 7.2-16 16v44.9c28.7 16.6 48 47.6 48 83.1s-19.3 66.6-48 83.1V384c0 8.8 7.2 16 16 16H512c8.8 0 16-7.2 16-16V339.1c-28.7-16.6-48-47.6-48-83.1s19.3-66.6 48-83.1V128c0-8.8-7.2-16-16-16H64z"/></svg>