<svg xmlns="http://www.w3.org/2000/svg" viewBox="0 0 640 512"><!--! Font Awesome Pro 6.5.1 by @fontawesome - https://fontawesome.com License - https://fontawesome.com/license (Commercial License) Copyright 2023 Fonticons, Inc. --><path d="M144 96c0-8.8 7.2-16 16-16H576c8.8 0 16 7.2 16 16v38.2c-24 15.7-40 42.8-40 73.8s16 58.1 40 73.8V320c0 8.8-7.2 16-16 16H160c-8.8 0-16-7.2-16-16V281.8c24-15.7 40-42.8 40-73.8s-16-58.1-40-73.8V96zM96 96v56c0 8.8 7.4 15.7 15.6 19.1c14.4 6.1 24.4 20.3 24.4 36.9s-10.1 30.8-24.4 36.9C103.4 248.3 96 255.2 96 264v56c0 35.3 28.7 64 64 64H576c35.3 0 64-28.7 64-64V264c0-8.8-7.4-15.7-15.6-19.1C610.1 238.8 600 224.6 600 208s10.1-30.8 24.4-36.9c8.1-3.4 15.6-10.3 15.6-19.1V96c0-35.3-28.7-64-64-64H160c-35.3 0-64 28.7-64 64zM48 120c0-13.3-10.7-24-24-24S0 106.7 0 120V360c0 66.3 53.7 120 120 120H520c13.3 0 24-10.7 24-24s-10.7-24-24-24H120c-39.8 0-72-32.2-72-72V120z"/></svg>