<svg xmlns="http://www.w3.org/2000/svg" viewBox="0 0 640 512"><!--! Font Awesome Pro 6.5.1 by @fontawesome - https://fontawesome.com License - https://fontawesome.com/license (Commercial License) Copyright 2023 Fonticons, Inc. --><path d="M0 24C0 37.3 10.7 48 24 48h8v96H24c-13.3 0-24 10.7-24 24s10.7 24 24 24H328c13.3 0 24-10.7 24-24s-10.7-24-24-24h-8V48h8c13.3 0 24-10.7 24-24s-10.7-24-24-24H24C10.7 0 0 10.7 0 24zM272 144H240V48h32v96zM160 48h32v96H160V48zm-48 96H80V48h32v96zM408 96c-13.3 0-24 10.7-24 24V224H56c-30.9 0-56 25.1-56 56v80c0 30.9 25.1 56 56 56h8c0 53 43 96 96 96s96-43 96-96H384c0 53 43 96 96 96s96-43 96-96h8c30.9 0 56-25.1 56-56V251.2c0-12.7-4.3-25.1-12.3-35L548.3 117c-10.6-13.3-26.7-21-43.7-21H408zM76.8 368H56c-4.4 0-8-3.6-8-8V280c0-4.4 3.6-8 8-8H384h48H592v88c0 4.4-3.6 8-8 8H563.2c-16.6-28.7-47.6-48-83.2-48s-66.6 19.3-83.2 48H243.2c-16.6-28.7-47.6-48-83.2-48s-66.6 19.3-83.2 48zM432 224V144h72.6c2.4 0 4.7 1.1 6.2 3l61.6 77H432zM112 416a48 48 0 1 1 96 0 48 48 0 1 1 -96 0zm368-48a48 48 0 1 1 0 96 48 48 0 1 1 0-96z"/></svg>