<svg xmlns="http://www.w3.org/2000/svg" viewBox="0 0 640 512"><!--! Font Awesome Pro 6.5.1 by @fontawesome - https://fontawesome.com License - https://fontawesome.com/license (Commercial License) Copyright 2023 Fonticons, Inc. --><path d="M24 0C10.7 0 0 10.7 0 24S10.7 48 24 48h8V98.7C13.4 105.3 0 123.1 0 144V368c0 26.5 21.5 48 48 48H64c0 53 43 96 96 96s96-43 96-96H384c0 53 43 96 96 96s96-43 96-96h16c26.5 0 48-21.5 48-48V144c0-26.5-21.5-48-48-48H544c0-17.7-14.3-32-32-32s-32 14.3-32 32H384V48H616c13.3 0 24-10.7 24-24s-10.7-24-24-24H24zM336 48V96H280V48h56zm0 96h48v80H48l0-80H336zM48 368l0-96H400c17.7 0 32-14.3 32-32V144H592V368H563.2c-16.6-28.7-47.6-48-83.2-48s-66.6 19.3-83.2 48H243.2c-16.6-28.7-47.6-48-83.2-48s-66.6 19.3-83.2 48H48zM232 48V96H184V48h48zm-96 0V96H80V48h56zM112 416a48 48 0 1 1 96 0 48 48 0 1 1 -96 0zm368-48a48 48 0 1 1 0 96 48 48 0 1 1 0-96zm8-192c-13.3 0-24 10.7-24 24v48c0 13.3 10.7 24 24 24h48c13.3 0 24-10.7 24-24V200c0-13.3-10.7-24-24-24H488z"/></svg>