<svg xmlns="http://www.w3.org/2000/svg" viewBox="0 0 640 512"><!--! Font Awesome Pro 6.5.1 by @fontawesome - https://fontawesome.com License - https://fontawesome.com/license (Commercial License) Copyright 2023 Fonticons, Inc. --><path d="M144 128a80 80 0 1 1 160 0 80 80 0 1 1 -160 0zm208 0A128 128 0 1 0 96 128a128 128 0 1 0 256 0zM49.3 464c8.9-63.3 63.3-112 129-112h91.4c21.2 0 41.3 5.1 59 14.1c-4.8-19.5-7.3-38.2-8.3-54.8c-16.1-4.8-33.1-7.3-50.7-7.3H178.3C79.8 304 0 383.8 0 482.3C0 498.7 13.3 512 29.7 512H418.3c1.8 0 3.5-.2 5.3-.5c-19.6-14.1-35.7-30.3-48.9-47.5H49.3zM487.1 225.7l-120 48C358 277.4 352 286.2 352 296c0 63.3 25.9 168.8 134.8 214.2c5.9 2.5 12.6 2.5 18.5 0C614.1 464.8 640 359.3 640 296c0-9.8-6-18.6-15.1-22.3l-120-48c-5.7-2.3-12.1-2.3-17.8 0zM591.4 312c-3.9 50.7-27.2 116.7-95.4 149.7V273.8L591.4 312z"/></svg>