<svg xmlns="http://www.w3.org/2000/svg" viewBox="0 0 640 512"><!--! Font Awesome Pro 6.5.1 by @fontawesome - https://fontawesome.com License - https://fontawesome.com/license (Commercial License) Copyright 2023 Fonticons, Inc. --><path d="M144 128a80 80 0 1 1 160 0 80 80 0 1 1 -160 0zm208 0A128 128 0 1 0 96 128a128 128 0 1 0 256 0zM49.3 464c8.9-63.3 63.3-112 129-112h91.4c34.9 0 66.5 13.7 89.9 36l33.9-33.9c-32.1-31-75.7-50.1-123.9-50.1H178.3C79.8 304 0 383.8 0 482.3C0 498.7 13.3 512 29.7 512H322.8c-3.1-8.8-3.7-18.4-1.4-27.8l5.1-20.2H49.3zM613.8 235.7c-15.6-15.6-40.9-15.6-56.6 0l-29.4 29.4 71 71 29.4-29.4c15.6-15.6 15.6-40.9 0-56.6l-14.4-14.4zM375.9 417c-4.1 4.1-7 9.2-8.4 14.9l-15 60.1c-1.4 5.5 .2 11.2 4.2 15.2s9.7 5.6 15.2 4.2l60.1-15c5.6-1.4 10.8-4.3 14.9-8.4L576.1 358.7l-71-71L375.9 417z"/></svg>