<svg xmlns="http://www.w3.org/2000/svg" viewBox="0 0 640 512"><!--! Font Awesome Pro 6.5.1 by @fontawesome - https://fontawesome.com License - https://fontawesome.com/license (Commercial License) Copyright 2023 Fonticons, Inc. --><path d="M144 128a80 80 0 1 1 160 0 80 80 0 1 1 -160 0zm208 0A128 128 0 1 0 96 128a128 128 0 1 0 256 0zM49.3 464c8.9-63.3 63.3-112 129-112h91.4c18.7 0 36.5 3.9 52.6 11c-1.5-6.1-2.3-12.4-2.3-18.8v-33c-15.9-4.7-32.8-7.2-50.3-7.2H178.3C79.8 304 0 383.8 0 482.3C0 498.7 13.3 512 29.7 512H418.3c10 0 18.8-4.9 24.2-12.5L396.9 454c.7 3.3 1.3 6.6 1.8 10H49.3zM384 224c-17.7 0-32 14.3-32 32v82.7c0 17 6.7 33.3 18.7 45.3L478.1 491.3c18.7 18.7 49.1 18.7 67.9 0l73.4-73.4c18.7-18.7 18.7-49.1 0-67.9L512 242.7c-12-12-28.3-18.7-45.3-18.7H384zm24 80a24 24 0 1 1 48 0 24 24 0 1 1 -48 0z"/></svg>