<svg xmlns="http://www.w3.org/2000/svg" viewBox="0 0 320 512"><!--! Font Awesome Pro 6.5.1 by @fontawesome - https://fontawesome.com License - https://fontawesome.com/license (Commercial License) Copyright 2023 Fonticons, Inc. --><path d="M32.1 22.1C33.1 9.6 43.5 0 56 0H165.9h29H264c12.5 0 22.9 9.6 23.9 22.1l13.9 176.4C307.7 273.1 255.2 337.9 184 350V464h64c13.3 0 24 10.7 24 24s-10.7 24-24 24H160 72c-13.3 0-24-10.7-24-24s10.7-24 24-24h64V350C64.8 337.9 12.3 273.1 18.1 198.5L32.1 22.1zM163.3 48H78.2L66 202.3C61.7 257.1 105 304 160 304s98.3-46.9 94-101.7L241.8 48H217.6l4.2 21.2c1.3 6.5-1.6 13.2-7.2 16.7L171.2 113c-6.5 4.1-9.2 12.2-6.5 19.3l30.9 80.4c2.1 5.5-1.9 11.3-7.8 11.3c-2.5 0-4.8-1.1-6.4-3l-76-89.8c-5.4-6.4-5-15.8 .9-21.6l52.3-52.3c2.6-2.6 4.1-5.9 4.6-9.3z"/></svg>