<svg xmlns="http://www.w3.org/2000/svg" viewBox="0 0 320 512"><!--! Font Awesome Pro 6.5.1 by @fontawesome - https://fontawesome.com License - https://fontawesome.com/license (Commercial License) Copyright 2023 Fonticons, Inc. --><path d="M56 0C43.5 0 33.1 9.6 32.1 22.1L18.1 198.5C12.3 273.1 64.8 337.9 136 350V464H72c-13.3 0-24 10.7-24 24s10.7 24 24 24h88 88c13.3 0 24-10.7 24-24s-10.7-24-24-24H184V350c71.2-12.1 123.7-76.9 117.9-151.5L287.9 22.1C286.9 9.6 276.5 0 264 0H56zM66 202.3L78.2 48H241.8L254 202.3c4.3 54.8-39 101.7-94 101.7s-98.3-46.9-94-101.7z"/></svg>