<svg xmlns="http://www.w3.org/2000/svg" viewBox="0 0 320 512"><!--! Font Awesome Pro 6.5.1 by @fontawesome - https://fontawesome.com License - https://fontawesome.com/license (Commercial License) Copyright 2023 Fonticons, Inc. --><path d="M32.1 22.1C33.1 9.6 43.5 0 56 0H264c12.5 0 22.9 9.6 23.9 22.1l13.9 176.4C307.7 273.1 255.2 337.9 184 350V464h64c13.3 0 24 10.7 24 24s-10.7 24-24 24H160 72c-13.3 0-24-10.7-24-24s10.7-24 24-24h64V350C64.8 337.9 12.3 273.1 18.1 198.5L32.1 22.1zM160 304c55 0 98.3-46.9 94-101.7L251.9 176H68.1L66 202.3C61.7 257.1 105 304 160 304zM71.9 128H248.1l-6.3-80H78.2l-6.3 80z"/></svg>